<?xml version="1.0" encoding="UTF-8" standalone="no"?>
<!DOCTYPE svg PUBLIC "-//W3C//DTD SVG 1.1//EN" "http://www.w3.org/Graphics/SVG/1.1/DTD/svg11.dtd">
<svg width="100%" height="100%" viewBox="0 0 300 300" version="1.1" xmlns="http://www.w3.org/2000/svg" xmlns:xlink="http://www.w3.org/1999/xlink" xml:space="preserve" xmlns:serif="http://www.serif.com/" style="fill-rule:evenodd;clip-rule:evenodd;stroke-linejoin:round;stroke-miterlimit:2;">
    <g transform="matrix(1,0,0,1,-16.4212,-817.445)">
        <g id="Artboard1" transform="matrix(2.06254,0,0,3.95169,-33.5399,1214.47)">
            <rect x="24.223" y="-100.469" width="145.452" height="75.917" style="fill:none;"/>
            <g transform="matrix(0.182924,0,0,0.0607737,28.237,-97.3211)">
                <path d="M243.967,101.708C243.967,76.206 230.787,55.502 214.554,55.502L86.468,55.502C70.235,55.502 57.055,76.206 57.055,101.708C57.055,101.708 57.055,302.932 57.055,302.932C57.055,328.434 70.235,349.138 86.468,349.138L214.554,349.138C230.787,349.138 243.967,328.434 243.967,302.932L243.967,101.708ZM220.112,101.708L220.112,302.932C220.112,307.751 217.622,311.663 214.554,311.663C214.554,311.663 86.468,311.663 86.468,311.663C83.4,311.663 80.91,307.751 80.91,302.932L80.91,101.708C80.91,96.889 83.4,92.977 86.468,92.977C86.468,92.977 214.554,92.977 214.554,92.977C217.622,92.977 220.112,96.889 220.112,101.708Z" style="fill:rgb(46,108,105);"/>
            </g>
            <g transform="matrix(0.182924,0,0,0.0607737,70.1026,-97.3211)">
                <path d="M243.967,101.708C243.967,76.206 230.787,55.502 214.554,55.502L86.468,55.502C70.235,55.502 57.055,76.206 57.055,101.708L57.055,302.932C57.055,328.434 70.235,349.138 86.468,349.138L214.554,349.138C230.787,349.138 243.967,328.434 243.967,302.932L243.967,101.708ZM220.112,101.708L220.112,302.932C220.112,307.751 217.622,311.663 214.554,311.663C214.554,311.663 86.468,311.663 86.468,311.663C83.4,311.663 80.91,307.751 80.91,302.932C80.91,302.932 80.91,101.708 80.91,101.708C80.91,96.889 83.4,92.977 86.468,92.977C86.468,92.977 214.554,92.977 214.554,92.977C217.622,92.977 220.112,96.889 220.112,101.708Z" style="fill:rgb(46,108,105);"/>
            </g>
            <g transform="matrix(0.182924,0,0,0.0607737,111.176,-97.3211)">
                <path d="M243.967,101.708C243.967,76.206 230.787,55.502 214.554,55.502L86.468,55.502C70.235,55.502 57.055,76.206 57.055,101.708C57.055,101.708 57.055,302.932 57.055,302.932C57.055,328.434 70.235,349.138 86.468,349.138L214.554,349.138C230.787,349.138 243.967,328.434 243.967,302.932L243.967,101.708ZM220.112,101.708L220.112,302.932C220.112,307.751 217.622,311.663 214.554,311.663C214.554,311.663 86.468,311.663 86.468,311.663C83.4,311.663 80.91,307.751 80.91,302.932L80.91,101.708C80.91,96.889 83.4,92.977 86.468,92.977C86.468,92.977 214.554,92.977 214.554,92.977C217.622,92.977 220.112,96.889 220.112,101.708Z" style="fill:rgb(46,108,105);"/>
            </g>
            <g transform="matrix(0.182924,0,0,0.0607737,28.237,-97.3211)">
                <path d="M243.967,101.708C243.967,76.206 230.787,55.502 214.554,55.502L86.468,55.502C70.235,55.502 57.055,76.206 57.055,101.708C57.055,101.708 57.055,302.932 57.055,302.932C57.055,328.434 70.235,349.138 86.468,349.138L214.554,349.138C230.787,349.138 243.967,328.434 243.967,302.932L243.967,101.708ZM220.112,101.708L220.112,302.932C220.112,307.751 217.622,311.663 214.554,311.663C214.554,311.663 86.468,311.663 86.468,311.663C83.4,311.663 80.91,307.751 80.91,302.932L80.91,101.708C80.91,96.889 83.4,92.977 86.468,92.977C86.468,92.977 214.554,92.977 214.554,92.977C217.622,92.977 220.112,96.889 220.112,101.708Z" style="fill:rgb(46,108,105);"/>
            </g>
            <g transform="matrix(0.182924,0,0,0.0607737,70.1026,-97.3211)">
                <path d="M243.967,101.708C243.967,76.206 230.787,55.502 214.554,55.502L86.468,55.502C70.235,55.502 57.055,76.206 57.055,101.708L57.055,302.932C57.055,328.434 70.235,349.138 86.468,349.138L214.554,349.138C230.787,349.138 243.967,328.434 243.967,302.932L243.967,101.708ZM220.112,101.708L220.112,302.932C220.112,307.751 217.622,311.663 214.554,311.663C214.554,311.663 86.468,311.663 86.468,311.663C83.4,311.663 80.91,307.751 80.91,302.932C80.91,302.932 80.91,101.708 80.91,101.708C80.91,96.889 83.4,92.977 86.468,92.977C86.468,92.977 214.554,92.977 214.554,92.977C217.622,92.977 220.112,96.889 220.112,101.708Z" style="fill:rgb(46,108,105);"/>
            </g>
            <g transform="matrix(0.182924,0,0,0.0607737,111.176,-97.3211)">
                <path d="M243.967,101.708C243.967,76.206 230.787,55.502 214.554,55.502L86.468,55.502C70.235,55.502 57.055,76.206 57.055,101.708C57.055,101.708 57.055,302.932 57.055,302.932C57.055,328.434 70.235,349.138 86.468,349.138L214.554,349.138C230.787,349.138 243.967,328.434 243.967,302.932L243.967,101.708ZM220.112,101.708L220.112,302.932C220.112,307.751 217.622,311.663 214.554,311.663C214.554,311.663 86.468,311.663 86.468,311.663C83.4,311.663 80.91,307.751 80.91,302.932L80.91,101.708C80.91,96.889 83.4,92.977 86.468,92.977C86.468,92.977 214.554,92.977 214.554,92.977C217.622,92.977 220.112,96.889 220.112,101.708Z" style="fill:rgb(46,108,105);"/>
            </g>
            <g transform="matrix(0.182924,0,0,0.0607737,27.9473,-74.806)">
                <path d="M243.967,101.708C243.967,76.206 230.787,55.502 214.554,55.502C214.554,55.502 86.468,55.502 86.468,55.502C70.235,55.502 57.055,76.206 57.055,101.708C57.055,101.708 57.055,302.932 57.055,302.932C57.055,328.434 70.235,349.138 86.468,349.138C86.468,349.138 214.554,349.138 214.554,349.138C230.787,349.138 243.967,328.434 243.967,302.932L243.967,101.708ZM220.112,101.708L220.112,302.932C220.112,307.751 217.622,311.663 214.554,311.663L86.468,311.663C83.4,311.663 80.91,307.751 80.91,302.932L80.91,101.708C80.91,96.889 83.4,92.977 86.468,92.977L214.554,92.977C217.622,92.977 220.112,96.889 220.112,101.708Z" style="fill:rgb(46,108,105);"/>
            </g>
            <g transform="matrix(0.182924,0,0,0.0607737,69.8129,-74.806)">
                <path d="M243.967,101.708C243.967,76.206 230.787,55.502 214.554,55.502C214.554,55.502 86.468,55.502 86.468,55.502C70.235,55.502 57.055,76.206 57.055,101.708L57.055,302.932C57.055,328.434 70.235,349.138 86.468,349.138C86.468,349.138 214.554,349.138 214.554,349.138C230.787,349.138 243.967,328.434 243.967,302.932L243.967,101.708ZM220.112,101.708L220.112,302.932C220.112,307.751 217.622,311.663 214.554,311.663L86.468,311.663C83.4,311.663 80.91,307.751 80.91,302.932C80.91,302.932 80.91,101.708 80.91,101.708C80.91,96.889 83.4,92.977 86.468,92.977L214.554,92.977C217.622,92.977 220.112,96.889 220.112,101.708Z" style="fill:rgb(46,108,105);"/>
            </g>
            <g transform="matrix(0.182924,0,0,0.0607737,110.886,-74.806)">
                <path d="M243.967,101.708C243.967,76.206 230.787,55.502 214.554,55.502C214.554,55.502 86.468,55.502 86.468,55.502C70.235,55.502 57.055,76.206 57.055,101.708C57.055,101.708 57.055,302.932 57.055,302.932C57.055,328.434 70.235,349.138 86.468,349.138C86.468,349.138 214.554,349.138 214.554,349.138C230.787,349.138 243.967,328.434 243.967,302.932C243.967,302.932 243.967,101.708 243.967,101.708ZM220.112,101.708L220.112,302.932C220.112,307.751 217.622,311.663 214.554,311.663L86.468,311.663C83.4,311.663 80.91,307.751 80.91,302.932L80.91,101.708C80.91,96.889 83.4,92.977 86.468,92.977L214.554,92.977C217.622,92.977 220.112,96.889 220.112,101.708Z" style="fill:rgb(46,108,105);"/>
            </g>
            <g transform="matrix(0.182924,0,0,0.0607737,27.6577,-52.291)">
                <path d="M243.967,101.708C243.967,76.206 230.787,55.502 214.554,55.502C214.554,55.502 86.468,55.502 86.468,55.502C70.235,55.502 57.055,76.206 57.055,101.708L57.055,302.932C57.055,328.434 70.235,349.138 86.468,349.138L214.554,349.138C230.787,349.138 243.967,328.434 243.967,302.932C243.967,302.932 243.967,101.708 243.967,101.708ZM220.112,101.708L220.112,302.932C220.112,307.751 217.622,311.663 214.554,311.663C214.554,311.663 86.468,311.663 86.468,311.663C83.4,311.663 80.91,307.751 80.91,302.932C80.91,302.932 80.91,101.708 80.91,101.708C80.91,96.889 83.4,92.977 86.468,92.977L214.554,92.977C217.622,92.977 220.112,96.889 220.112,101.708Z" style="fill:rgb(46,108,105);"/>
            </g>
            <g transform="matrix(0.182924,0,0,0.0607737,69.5233,-52.291)">
                <path d="M243.967,101.708C243.967,76.206 230.787,55.502 214.554,55.502C214.554,55.502 86.468,55.502 86.468,55.502C70.235,55.502 57.055,76.206 57.055,101.708L57.055,302.932C57.055,328.434 70.235,349.138 86.468,349.138L214.554,349.138C230.787,349.138 243.967,328.434 243.967,302.932L243.967,101.708ZM220.112,101.708L220.112,302.932C220.112,307.751 217.622,311.663 214.554,311.663C214.554,311.663 86.468,311.663 86.468,311.663C83.4,311.663 80.91,307.751 80.91,302.932C80.91,302.932 80.91,101.708 80.91,101.708C80.91,96.889 83.4,92.977 86.468,92.977L214.554,92.977C217.622,92.977 220.112,96.889 220.112,101.708Z" style="fill:rgb(46,108,105);"/>
            </g>
            <g transform="matrix(0.182924,0,0,0.0607737,110.597,-52.291)">
                <path d="M243.967,101.708C243.967,76.206 230.787,55.502 214.554,55.502C214.554,55.502 86.468,55.502 86.468,55.502C70.235,55.502 57.055,76.206 57.055,101.708L57.055,302.932C57.055,328.434 70.235,349.138 86.468,349.138L214.554,349.138C230.787,349.138 243.967,328.434 243.967,302.932L243.967,101.708ZM220.112,101.708L220.112,302.932C220.112,307.751 217.622,311.663 214.554,311.663C214.554,311.663 86.468,311.663 86.468,311.663C83.4,311.663 80.91,307.751 80.91,302.932C80.91,302.932 80.91,101.708 80.91,101.708C80.91,96.889 83.4,92.977 86.468,92.977L214.554,92.977C217.622,92.977 220.112,96.889 220.112,101.708Z" style="fill:rgb(46,108,105);"/>
            </g>
        </g>
    </g>
</svg>
