<?xml version="1.0" encoding="UTF-8" standalone="no"?>
<!DOCTYPE svg PUBLIC "-//W3C//DTD SVG 1.1//EN" "http://www.w3.org/Graphics/SVG/1.1/DTD/svg11.dtd">
<svg width="100%" height="100%" viewBox="0 0 300 300" version="1.1" xmlns="http://www.w3.org/2000/svg" xmlns:xlink="http://www.w3.org/1999/xlink" xml:space="preserve" xmlns:serif="http://www.serif.com/" style="fill-rule:evenodd;clip-rule:evenodd;stroke-linejoin:round;stroke-miterlimit:2;">
    <g transform="matrix(1,0,0,1,-30.2236,0)">
        <g id="Artboard1" transform="matrix(2.06254,0,0,3.95169,-19.7375,397.021)">
            <rect x="24.223" y="-100.469" width="145.452" height="75.917" style="fill:none;"/>
            <g transform="matrix(0.606822,0,0,0.234471,-5.46388,-104.343)">
                <path d="M235.635,97.858C235.635,82.142 226.189,69.383 214.554,69.383L86.468,69.383C74.833,69.383 65.387,82.142 65.387,97.858L65.387,306.782C65.387,322.498 74.833,335.258 86.468,335.258L214.554,335.258C226.189,335.258 235.635,322.498 235.635,306.782C235.635,306.782 235.635,97.858 235.635,97.858ZM228.444,97.858L228.444,306.782C228.444,317.137 222.22,325.544 214.554,325.544C214.554,325.544 86.468,325.544 86.468,325.544C78.802,325.544 72.578,317.137 72.578,306.782C72.578,306.782 72.578,97.858 72.578,97.858C72.578,87.503 78.802,79.096 86.468,79.096C86.468,79.096 214.554,79.096 214.554,79.096C222.22,79.096 228.444,87.503 228.444,97.858Z" style="fill:rgb(46,108,105);"/>
            </g>
            <g transform="matrix(0.606822,0,0,0.234471,5.75495,-109.948)">
                <path d="M214.554,335.258C226.189,335.258 235.635,322.498 235.635,306.782L235.635,97.858C235.635,82.142 226.189,69.383 214.554,69.383L86.468,69.383C74.833,69.383 65.387,82.142 65.387,97.858C65.387,100.538 66.998,102.715 68.983,102.715C70.967,102.715 72.578,100.538 72.578,97.858C72.578,87.503 78.802,79.096 86.468,79.096L214.554,79.096C222.22,79.096 228.444,87.503 228.444,97.858C228.444,97.858 228.444,306.782 228.444,306.782C228.444,317.137 222.22,325.544 214.554,325.544C212.57,325.544 210.959,327.72 210.959,330.401C210.959,333.081 212.57,335.258 214.554,335.258Z" style="fill:rgb(46,108,105);"/>
            </g>
            <g transform="matrix(0.606822,0,0,0.234471,16.6948,-115.554)">
                <path d="M214.554,335.258C226.189,335.258 235.635,322.498 235.635,306.782C235.635,306.782 235.635,97.858 235.635,97.858C235.635,82.142 226.189,69.383 214.554,69.383C214.554,69.383 86.468,69.383 86.468,69.383C74.833,69.383 65.387,82.142 65.387,97.858C65.387,100.538 66.998,102.715 68.983,102.715C70.967,102.715 72.578,100.538 72.578,97.858C72.578,87.503 78.802,79.096 86.468,79.096L214.554,79.096C222.22,79.096 228.444,87.503 228.444,97.858L228.444,306.782C228.444,317.137 222.22,325.544 214.554,325.544C212.57,325.544 210.959,327.72 210.959,330.401C210.959,333.081 212.57,335.258 214.554,335.258Z" style="fill:rgb(46,108,105);"/>
            </g>
            <g transform="matrix(0.480412,0,0,0.269398,25.4115,-99.0968)">
                <path d="M22.865,83.443L226.947,83.443C229.453,83.443 231.488,81.549 231.488,79.216C231.488,76.883 229.453,74.989 226.947,74.989L22.865,74.989C20.359,74.989 18.324,76.883 18.324,79.216C18.324,81.549 20.359,83.443 22.865,83.443Z" style="fill:rgb(46,108,105);"/>
            </g>
            <g transform="matrix(0.480412,0,0,0.269398,25.4115,-76.738)">
                <path d="M22.865,83.443L226.947,83.443C229.453,83.443 231.488,81.549 231.488,79.216C231.488,76.883 229.453,74.989 226.947,74.989L22.865,74.989C20.359,74.989 18.324,76.883 18.324,79.216C18.324,81.549 20.359,83.443 22.865,83.443Z" style="fill:rgb(46,108,105);"/>
            </g>
            <g transform="matrix(0.177373,0,0,0.269398,40.1042,-71.8965)">
                <path d="M22.865,83.443L226.947,83.443C233.735,83.443 239.247,81.549 239.247,79.216C239.247,76.883 233.735,74.989 226.947,74.989L22.865,74.989C16.077,74.989 10.565,76.883 10.565,79.216C10.565,81.549 16.077,83.443 22.865,83.443Z" style="fill:rgb(46,108,105);"/>
            </g>
            <g transform="matrix(0.38694,0,0,0.587694,35.3123,-92.4664)">
                <path d="M22.865,81.154L226.947,81.154C230.059,81.154 232.585,80.286 232.585,79.216C232.585,78.147 230.059,77.279 226.947,77.279L22.865,77.279C19.753,77.279 17.227,78.147 17.227,79.216C17.227,80.286 19.753,81.154 22.865,81.154Z" style="fill:rgb(46,108,105);"/>
            </g>
            <g transform="matrix(0.38694,0,0,0.587694,35.3123,-87.8222)">
                <path d="M22.865,81.154L226.947,81.154C230.059,81.154 232.585,80.286 232.585,79.216C232.585,78.147 230.059,77.279 226.947,77.279L22.865,77.279C19.753,77.279 17.227,78.147 17.227,79.216C17.227,80.286 19.753,81.154 22.865,81.154Z" style="fill:rgb(46,108,105);"/>
            </g>
            <g transform="matrix(0.254111,0,0,0.587694,38.3495,-83.178)">
                <path d="M22.865,81.154L226.947,81.154C231.685,81.154 235.532,80.286 235.532,79.216C235.532,78.147 231.685,77.279 226.947,77.279L22.865,77.279C18.127,77.279 14.279,78.147 14.279,79.216C14.279,80.286 18.127,81.154 22.865,81.154Z" style="fill:rgb(46,108,105);"/>
            </g>
            <g transform="matrix(0.396046,0,0,0.269398,36.2119,-81.2875)">
                <path d="M22.865,83.443L226.947,83.443C229.987,83.443 232.455,81.549 232.455,79.216C232.455,76.883 229.987,74.989 226.947,74.989L22.865,74.989C19.825,74.989 17.356,76.883 17.356,79.216C17.356,81.549 19.825,83.443 22.865,83.443Z" style="fill:rgb(46,108,105);"/>
            </g>
            <g transform="matrix(3.09867e-18,0.00950199,-0.516149,5.93438e-18,91.4328,-61.1336)">
                <path d="M22.865,83.443L226.947,83.443C293.09,83.443 346.79,81.549 346.79,79.216C346.79,76.883 293.09,74.989 226.947,74.989L22.865,74.989C-43.278,74.989 -96.978,76.883 -96.978,79.216C-96.978,81.549 -43.278,83.443 22.865,83.443Z" style="fill:rgb(46,108,105);"/>
            </g>
            <g transform="matrix(0.651643,0,0,0.340118,16.1635,-103.288)">
                <circle cx="45.438" cy="61.831" r="5.469" style="fill:rgb(46,108,105);"/>
            </g>
            <g transform="matrix(0.651643,0,0,0.340118,16.1635,-103.288)">
                <path d="M45.438,53.014C40.572,53.014 36.621,56.965 36.621,61.831C36.621,66.697 40.572,70.648 45.438,70.648C50.304,70.648 54.255,66.697 54.255,61.831C54.255,56.965 50.304,53.014 45.438,53.014ZM45.438,59.71C46.609,59.71 47.559,60.661 47.559,61.831C47.559,63.002 46.609,63.952 45.438,63.952C44.268,63.952 43.317,63.002 43.317,61.831C43.317,60.661 44.268,59.71 45.438,59.71Z" style="fill:none;"/>
            </g>
            <g transform="matrix(0.651643,0,0,0.340118,25.2032,-103.288)">
                <circle cx="45.438" cy="61.831" r="5.469" style="fill:rgb(46,108,105);"/>
            </g>
            <g transform="matrix(0.651643,0,0,0.340118,25.2032,-103.288)">
                <path d="M45.438,53.014C40.572,53.014 36.621,56.965 36.621,61.831C36.621,66.697 40.572,70.648 45.438,70.648C50.304,70.648 54.255,66.697 54.255,61.831C54.255,56.965 50.304,53.014 45.438,53.014ZM45.438,59.71C46.609,59.71 47.559,60.661 47.559,61.831C47.559,63.002 46.609,63.952 45.438,63.952C44.268,63.952 43.317,63.002 43.317,61.831C43.317,60.661 44.268,59.71 45.438,59.71Z" style="fill:none;"/>
            </g>
            <g transform="matrix(2.18372e-17,0.186138,-0.331202,1.05851e-17,126.667,-90.0772)">
                <path d="M122.565,95.937C121.498,93.803 119.429,92.472 117.179,92.472C114.928,92.472 112.859,93.803 111.792,95.937L89.159,141.204C88.138,143.245 88.189,145.714 89.293,147.704C90.397,149.695 92.392,150.914 94.545,150.914L139.812,150.914C141.965,150.914 143.96,149.695 145.064,147.704C146.168,145.714 146.219,143.245 145.199,141.204L122.565,95.937ZM117.179,112.956L129.57,137.739C129.57,137.739 104.787,137.739 104.787,137.739L117.179,112.956Z" style="fill:rgb(46,108,105);"/>
            </g>
        </g>
    </g>
</svg>
