<?xml version="1.0" encoding="UTF-8" standalone="no"?>
<!DOCTYPE svg PUBLIC "-//W3C//DTD SVG 1.1//EN" "http://www.w3.org/Graphics/SVG/1.1/DTD/svg11.dtd">
<svg width="100%" height="100%" viewBox="0 0 300 300" version="1.1" xmlns="http://www.w3.org/2000/svg" xmlns:xlink="http://www.w3.org/1999/xlink" xml:space="preserve" xmlns:serif="http://www.serif.com/" style="fill-rule:evenodd;clip-rule:evenodd;stroke-linejoin:round;stroke-miterlimit:2;">
    <g transform="matrix(1,0,0,1,0,-1252.17)">
        <g id="Artboard1" transform="matrix(2.06254,0,0,3.95169,-49.9611,1649.19)">
            <rect x="24.223" y="-100.469" width="145.452" height="75.917" style="fill:none;"/>
            <g transform="matrix(2.94316e-17,-0.250872,0.355828,1.13721e-17,6.91519,-20.9337)">
                <path d="M64.443,190.2L64.443,306.782C64.443,323.202 74.312,336.532 86.468,336.532L214.554,336.532C226.71,336.532 236.579,323.202 236.579,306.782L236.579,97.858C236.579,81.438 226.71,68.108 214.554,68.108C214.554,68.108 86.468,68.108 86.468,68.108C74.312,68.108 64.443,81.438 64.443,97.858C64.443,97.858 64.443,124.046 64.443,124.046C64.443,127.43 66.477,130.178 68.983,130.178C71.488,130.178 73.522,127.43 73.522,124.046L73.522,97.858C73.522,88.207 79.323,80.371 86.468,80.371L214.554,80.371C221.699,80.371 227.5,88.207 227.5,97.858C227.5,97.858 227.5,306.782 227.5,306.782C227.5,316.434 221.699,324.269 214.554,324.269C214.554,324.269 86.468,324.269 86.468,324.269C79.323,324.269 73.522,316.434 73.522,306.782L73.522,190.2C73.522,186.816 71.488,184.068 68.983,184.068C66.477,184.068 64.443,186.816 64.443,190.2Z" style="fill:rgb(46,108,105);"/>
            </g>
            <g transform="matrix(2.94316e-17,-0.250872,0.355828,1.13721e-17,24.9577,-30.3805)">
                <path d="M64.443,283.68L64.443,306.782C64.443,323.202 74.312,336.532 86.468,336.532C86.468,336.532 214.554,336.532 214.554,336.532C226.71,336.532 236.579,323.202 236.579,306.782L236.579,97.858C236.579,81.438 226.71,68.108 214.554,68.108C214.554,68.108 196.719,68.108 196.719,68.108C194.214,68.108 192.18,70.855 192.18,74.239C192.18,77.623 194.214,80.371 196.719,80.371L214.554,80.371C221.699,80.371 227.5,88.207 227.5,97.858C227.5,97.858 227.5,306.782 227.5,306.782C227.5,316.434 221.699,324.269 214.554,324.269L86.468,324.269C79.323,324.269 73.522,316.434 73.522,306.782L73.522,283.68C73.522,280.295 71.488,277.548 68.983,277.548C66.477,277.548 64.443,280.295 64.443,283.68Z" style="fill:rgb(46,108,105);"/>
            </g>
            <g transform="matrix(2.94316e-17,-0.250872,0.355828,1.13721e-17,43.0002,-39.8273)">
                <path d="M64.443,283.68L64.443,306.782C64.443,323.202 74.312,336.532 86.468,336.532C86.468,336.532 214.554,336.532 214.554,336.532C226.71,336.532 236.579,323.202 236.579,306.782L236.579,97.858C236.579,81.438 226.71,68.108 214.554,68.108L196.719,68.108C194.214,68.108 192.18,70.855 192.18,74.239C192.18,77.623 194.214,80.371 196.719,80.371L214.554,80.371C221.699,80.371 227.5,88.207 227.5,97.858C227.5,97.858 227.5,306.782 227.5,306.782C227.5,316.434 221.699,324.269 214.554,324.269L86.468,324.269C79.323,324.269 73.522,316.434 73.522,306.782C73.522,306.782 73.522,283.68 73.522,283.68C73.522,280.295 71.488,277.548 68.983,277.548C66.477,277.548 64.443,280.295 64.443,283.68Z" style="fill:rgb(46,108,105);"/>
            </g>
            <g transform="matrix(0.407154,0,0,0.188766,-105.66,-327.425)">
                <path d="M427.541,1383.88C430.628,1372.96 440.814,1365.19 452.717,1365.19C466.963,1365.19 478.824,1376.38 478.824,1390.62C478.824,1401.98 471.202,1411.43 460.951,1414.76C458.109,1415.68 456.468,1419.03 457.288,1422.23C458.108,1425.43 461.081,1427.27 463.922,1426.35C478.903,1421.48 489.541,1407.22 489.541,1390.62C489.541,1370.13 473.206,1353.12 452.717,1353.12C435.826,1353.12 421.71,1364.73 417.329,1380.23C416.432,1383.4 417.991,1386.79 420.81,1387.8C423.628,1388.81 426.644,1387.06 427.541,1383.88Z" style="fill:rgb(46,108,105);"/>
            </g>
            <g transform="matrix(0.465481,0,0,0.242953,-143.04,-407.35)">
                <path d="M484.384,1428.06C484.381,1428.06 476.821,1429.11 471.132,1435.61C467.542,1439.72 464.55,1446.04 465.127,1455.89C465.279,1458.47 467.498,1460.44 470.081,1460.29C472.663,1460.14 474.637,1457.92 474.485,1455.34C474.102,1448.8 475.803,1444.51 478.189,1441.78C481.463,1438.04 485.755,1437.33 485.755,1437.33C488.314,1436.95 490.085,1434.57 489.707,1432.01C489.328,1429.45 486.943,1427.68 484.384,1428.06ZM484.384,1428.06C484.384,1428.06 484.384,1428.06 484.384,1428.06Z" style="fill:rgb(46,108,105);"/>
            </g>
            <g transform="matrix(0.744475,0,0,0.38857,41.7554,-72.6737)">
                <circle cx="45.438" cy="61.831" r="5.469" style="fill:rgb(46,108,105);"/>
            </g>
            <g transform="matrix(0.744475,0,0,0.38857,41.7554,-72.6737)">
                <path d="M45.438,53.431C40.802,53.431 37.039,57.195 37.039,61.831C37.039,66.467 40.802,70.231 45.438,70.231C50.074,70.231 53.838,66.467 53.838,61.831C53.838,57.195 50.074,53.431 45.438,53.431ZM45.438,59.293C46.839,59.293 47.977,60.43 47.977,61.831C47.977,63.232 46.839,64.369 45.438,64.369C44.037,64.369 42.9,63.232 42.9,61.831C42.9,60.43 44.037,59.293 45.438,59.293Z" style="fill:none;"/>
            </g>
            <g transform="matrix(-0.510347,-3.26209e-17,5.80435e-17,-0.247379,122.706,-2.47572)">
                <path d="M98.31,146.509L117.179,108.77C117.179,108.77 136.048,146.509 136.048,146.509C137.166,148.746 139.761,149.584 141.838,148.38C143.916,147.175 144.695,144.381 143.576,142.144L120.943,96.878C120.197,95.386 118.751,94.457 117.179,94.457C115.606,94.457 114.16,95.386 113.414,96.878L90.781,142.144C89.663,144.381 90.441,147.175 92.519,148.38C94.596,149.584 97.191,148.746 98.31,146.509Z" style="fill:rgb(46,108,105);"/>
            </g>
        </g>
    </g>
</svg>
