<?xml version="1.0" encoding="UTF-8" standalone="no"?>
<!DOCTYPE svg PUBLIC "-//W3C//DTD SVG 1.1//EN" "http://www.w3.org/Graphics/SVG/1.1/DTD/svg11.dtd">
<svg width="100%" height="100%" viewBox="0 0 300 300" version="1.1" xmlns="http://www.w3.org/2000/svg" xmlns:xlink="http://www.w3.org/1999/xlink" xml:space="preserve" xmlns:serif="http://www.serif.com/" style="fill-rule:evenodd;clip-rule:evenodd;stroke-linejoin:round;stroke-miterlimit:2;">
    <g transform="matrix(1,0,0,1,-17.1226,-437.607)">
        <g id="Artboard1" transform="matrix(2.06254,0,0,3.95169,-32.8385,834.629)">
            <rect x="24.223" y="-100.469" width="145.452" height="75.917" style="fill:none;"/>
            <g transform="matrix(0.484839,0,0,0.253056,36.1418,-210.664)">
                <path d="M124.549,557.022C105.855,557.022 90.679,572.198 90.679,590.892C90.679,609.585 105.855,624.762 124.549,624.762C143.242,624.762 158.419,609.585 158.419,590.892C158.419,572.198 143.242,557.022 124.549,557.022ZM124.549,566.022C138.275,566.022 149.419,577.166 149.419,590.892C149.419,604.618 138.275,615.762 124.549,615.762C110.823,615.762 99.679,604.618 99.679,590.892C99.679,577.166 110.823,566.022 124.549,566.022Z" style="fill:rgb(46,108,105);"/>
            </g>
            <g transform="matrix(2.29656e-17,0.195757,-0.171424,5.47863e-18,131.631,-67.0366)">
                <path d="M173.499,61.512L127.523,61.512C92.003,61.512 63.165,124.606 63.165,202.32C63.165,280.034 92.003,343.128 127.523,343.128L173.499,343.128C176.709,343.128 179.316,337.425 179.316,330.401C179.316,323.376 176.709,317.673 173.499,317.673L127.523,317.673C98.424,317.673 74.8,265.985 74.8,202.32C74.8,138.655 98.424,86.967 127.523,86.967L173.499,86.967C176.709,86.967 179.316,81.264 179.316,74.239C179.316,67.215 176.709,61.512 173.499,61.512Z" style="fill:rgb(46,108,105);"/>
            </g>
            <g transform="matrix(0.484839,0,0,0.253056,24.4264,-206.025)">
                <path d="M104.295,687.952L194.866,687.952C197.35,687.952 199.366,685.936 199.366,683.452C199.366,680.969 197.35,678.952 194.866,678.952L104.295,678.952C101.812,678.952 99.795,680.969 99.795,683.452C99.795,685.936 101.812,687.952 104.295,687.952Z" style="fill:rgb(46,108,105);"/>
            </g>
            <g transform="matrix(0.484839,0,0,0.253056,-0.152212,-213.91)">
                <path d="M124.549,557.022C105.855,557.022 90.679,572.198 90.679,590.892C90.679,609.585 105.855,624.762 124.549,624.762C143.242,624.762 158.419,609.585 158.419,590.892C158.419,572.198 143.242,557.022 124.549,557.022ZM124.549,566.022C138.275,566.022 149.419,577.166 149.419,590.892C149.419,604.618 138.275,615.762 124.549,615.762C110.823,615.762 99.679,604.618 99.679,590.892C99.679,577.166 110.823,566.022 124.549,566.022Z" style="fill:rgb(46,108,105);"/>
            </g>
            <g transform="matrix(2.29656e-17,0.195757,-0.171424,5.47863e-18,95.3373,-70.2829)">
                <path d="M100.946,74.062C78.669,96.21 63.165,145.336 63.165,202.32C63.165,280.034 92.003,343.128 127.523,343.128C127.523,343.128 173.499,343.128 173.499,343.128C176.709,343.128 179.316,337.425 179.316,330.401C179.316,323.376 176.709,317.673 173.499,317.673L127.523,317.673C98.424,317.673 74.8,265.985 74.8,202.32C74.8,155.63 87.507,115.383 105.759,97.236C108.682,94.33 109.977,86.778 108.648,80.383C107.32,73.988 103.869,71.156 100.946,74.062Z" style="fill:rgb(46,108,105);"/>
            </g>
            <g transform="matrix(0.484839,0,0,0.253056,-11.8677,-209.271)">
                <path d="M104.295,687.952L177.161,687.952C179.645,687.952 181.661,685.936 181.661,683.452C181.661,680.969 179.645,678.952 177.161,678.952L104.295,678.952C101.812,678.952 99.795,680.969 99.795,683.452C99.795,685.936 101.812,687.952 104.295,687.952Z" style="fill:rgb(46,108,105);"/>
            </g>
            <g transform="matrix(-0.484839,0,0,0.253056,194.05,-213.91)">
                <path d="M124.549,557.022C143.242,557.022 158.419,572.198 158.419,590.892C158.419,609.585 143.242,624.762 124.549,624.762C105.855,624.762 90.679,609.585 90.679,590.892C90.679,572.198 105.855,557.022 124.549,557.022ZM124.549,566.022C110.823,566.022 99.679,577.166 99.679,590.892C99.679,604.618 110.823,615.762 124.549,615.762C138.275,615.762 149.419,604.618 149.419,590.892C149.419,577.166 138.275,566.022 124.549,566.022Z" style="fill:rgb(46,108,105);"/>
            </g>
            <g transform="matrix(-2.29656e-17,0.195757,0.171424,5.47863e-18,98.5605,-70.2829)">
                <path d="M105.759,97.236C87.507,115.383 74.8,155.63 74.8,202.32C74.8,265.985 98.424,317.673 127.523,317.673C127.523,317.673 173.499,317.673 173.499,317.673C176.709,317.673 179.316,323.376 179.316,330.401C179.316,337.425 176.709,343.128 173.499,343.128L127.523,343.128C92.003,343.128 63.165,280.034 63.165,202.32C63.165,145.336 78.669,96.21 100.946,74.062C103.869,71.156 107.32,73.988 108.648,80.383C109.977,86.778 108.682,94.33 105.759,97.236Z" style="fill:rgb(46,108,105);"/>
            </g>
            <g transform="matrix(-0.484839,0,0,0.253056,205.765,-209.271)">
                <path d="M104.295,678.952L177.161,678.952C179.645,678.952 181.661,680.969 181.661,683.452C181.661,685.936 179.645,687.952 177.161,687.952L104.295,687.952C101.812,687.952 99.795,685.936 99.795,683.452C99.795,680.969 101.812,678.952 104.295,678.952Z" style="fill:rgb(46,108,105);"/>
            </g>
            <g transform="matrix(2.96553e-17,0.252779,-0.514041,1.64285e-17,200.95,-109.385)">
                <path d="M236.544,90.713C236.544,79.278 226.691,69.995 214.554,69.995C214.554,69.995 86.468,69.995 86.468,69.995C74.331,69.995 64.478,79.278 64.478,90.713L64.478,313.927C64.478,325.362 74.331,334.645 86.468,334.645C86.468,334.645 214.554,334.645 214.554,334.645C226.691,334.645 236.544,325.362 236.544,313.927C236.544,311.585 234.526,309.683 232.039,309.683C229.553,309.683 227.534,311.585 227.534,313.927C227.534,320.677 221.718,326.156 214.554,326.156L86.468,326.156C79.304,326.156 73.488,320.677 73.488,313.927C73.488,313.927 73.488,90.713 73.488,90.713C73.488,83.963 79.304,78.484 86.468,78.484L214.554,78.484C221.718,78.484 227.534,83.963 227.534,90.713C227.534,93.055 229.553,94.957 232.039,94.957C234.526,94.957 236.544,93.055 236.544,90.713Z" style="fill:rgb(46,108,105);"/>
            </g>
            <g transform="matrix(0.38694,0,0,0.587694,31.042,-128.321)">
                <path d="M22.865,81.154L226.947,81.154C230.059,81.154 232.585,80.286 232.585,79.216C232.585,78.147 230.059,77.279 226.947,77.279L22.865,77.279C19.753,77.279 17.227,78.147 17.227,79.216C17.227,80.286 19.753,81.154 22.865,81.154Z" style="fill:rgb(46,108,105);"/>
            </g>
            <g transform="matrix(0.235207,0,0,0.269398,34.5115,-107.743)">
                <path d="M22.865,83.443L226.947,83.443C232.066,83.443 236.223,81.549 236.223,79.216C236.223,76.883 232.066,74.989 226.947,74.989L22.865,74.989C17.746,74.989 13.589,76.883 13.589,79.216C13.589,81.549 17.746,83.443 22.865,83.443Z" style="fill:rgb(46,108,105);"/>
            </g>
        </g>
    </g>
</svg>
